<?xml version="1.0" encoding="UTF-8"?>
<svg id="Layer_1" xmlns="http://www.w3.org/2000/svg" version="1.1" viewBox="0 0 792 612">
  <!-- Generator: Adobe Illustrator 30.3.0, SVG Export Plug-In . SVG Version: 2.1.3 Build 182)  -->
  <defs>
    <style>
      .st0 {
        fill: #fff;
      }
    </style>
  </defs>
  <path d="M559.8,573.32c-.32,1.68-1.86,2.96-3.07,3.44-4.1,1.63-7.86-7.26-15.75-8.79l-12.04-2.34-18.92-2.82c-9.47-1.41-18.05-5.62-25.33-11.71-19.62-16.39-19.47-45.3-1.21-63.32,13.96-13.78,34.61-15.92,53.72-13.81,6.31.7,14.37.23,16.47-4.98,2.01-4.98-2.88-9.48-7.97-12.64l-16.79-10.42c-6.4-3.97-12-8.61-16.86-14.29-11.53-13.34-15.2-31.15-9.58-48.09l-19.72-2.57-2.64,20.01-5.89,45.5-2.52,21.85-4.46,39.58-2.49,27.62c-.22,2.44-3.28,3.07-5.23,3.05l-28.25-.31-20.55-.49c-2.65-.06-4.2-2.77-3.71-5.05l2.9-13.54-27.37,10.31c-1.6.6-3.28.81-4.83.08-1.14-.54-2.17-2.21-2.47-3.67l-1.35-6.66c-.99-4.89-2.6-9.8-5.32-13.88-2.14-3.2-6.38-3.96-8.99-1.24l-7.96,8.29c-1.61,1.67-3.84,2.79-6.1,2.33-5.68-1.16-4.74-9.4-8.98-16.96-1.77-3.15-5.3-4.2-8.15-2.1-2.3,1.68-4.55,3.94-5.71,6.61l-5.74,13.26,18.09,15.77c1.48,1.29,2.83,2,2.76,4.1-.05,1.56-1.58,3.56-3.62,3.56h-6.92s-39.56-3.02-39.56-3.02l-8.66,16.72c-.67,1.29-2.46,2.52-3.58,2.67-1.24.16-3.55-.5-4.46-1.56l-15.54-18.17-34.24-41.25,11.7,44c.58,2.17.4,4.92-2.01,5.86l-46.66,18.16c-2.73,1.06-6.79.97-7.32-2.63l-2.9-19.8-9.71-50.78c-4.72-24.69-11.77-48.49-19.84-72.2-1.93,1.28-3.71,1.98-5.39,1.35-.64-.24-1.17-2.03-.96-2.68.23-.74,1.31-1.73,2.12-2.06l2.79-1.14-4.03-11.43-4.36,1.97c-.75.34-2.62-.44-2.98-1.1-.41-.74-.04-2.71.8-3.11l4.88-2.28-4.75-12.14-4.83,2.34c-.68.33-2.09.06-2.61-.4-.6-.52-.66-2.81-.03-3.34,1.53-1.29,3.18-2.02,5.45-3.04l-11.53-26.15c-1.19-2.7,1.56-5.12,3.83-6.42,28.22-16.13,59.48-26.6,91.94-30.02,11.59-1.22,22.67-.39,33.7,2.53,7.29,1.93,13.78,5.44,19.66,9.97,19.76,15.25,21.28,42.52,10.81,64.41-4.51,8.96-10.01,16.89-16.45,24.63-7.16,8.78-14.72,16.8-23.6,24.18l30.96,30.47c3.95-21.27,8.29-41.29,13.18-61.85l10.31-38.72c4.17-15.66,9.75-30.46,15.91-45.35.79-1.91,2.84-3.24,4.39-3.36,2.16-.17,3.69.99,4.89,2.78l11.49,17.1,5.86-12.82c.92-2.02,5.18-3.22,6.63-1.04,6.89,10.38,13.33,20.6,19.55,31.46,10.78,17.98,19.95,36.29,28.94,55.26,9.66,20.37,17.95,40.81,26.03,62.58l15.89-99.43-9.87.23-41.79.36c-1.8.02-3.43.15-4.76-.98-1.02-.86-1.16-2.61-1.38-4.25l-3.22-24.54-2.46-18.86c-.24-1.85-.45-3.57.66-4.9s2.7-1.9,4.77-1.86c34.84.54,69.25,1.97,103.95,5.23l37.45,4.21c2.03.23,2.72,2.76,2.82,4.31l.93,14.95c11.8-10.61,25.51-18.12,40.83-22.44,19.87-5.6,39.26-6.62,58.55,1.58l2.54-3.97c.4-.62,2.45-.41,2.95.12.64.68.79,2.13.31,3.02l-1.5,2.76,9.04,5.92,3.12-3.45c.52-.58,2.11-.87,2.8-.56.89.4,1.37,2.39.75,3.21l-3.15,4.15,6.28,8.29.49.74c.28.43,2.25-2.07,4.48-1.37.47.15,1.16,1.25,1.18,1.74.03.58-.49,1.82-.97,2.15l-2.52,1.7c3.41,8.66,4.04,18.21,1.13,27.19-4.13,12.76-13.99,25.29-27.38,27.06-5.35.7-10.58-.77-14.09-4.7-2.73-3.06-2.76-7.04-.5-10.34,1.48-2.15,2.67-5.03,2.62-7.7-.07-3.49-2.62-6.24-5.59-7.8-9.14-4.82-24.47-2.21-30.84,5.87-3.46,4.39-3.09,9.94.9,13.73,2.55,2.42,5.38,4.48,8.39,6.42l18.07,11.66c14.28,10.9,23.29,27.23,23.91,45.33.28,8.16-1.54,15.8-4.46,23.3-3.42,8.79-9.3,16.07-16.9,21.67-11.89,8.77-26.19,12.59-40.97,12-7.73-.31-14.85-1.92-22.36-3.41l-15.76-3.13c-6.55-1.3-17.93,1.58-18.88,9.31-.36,2.96.77,5.79,2.85,7.81,10.32,10,26.51,6.79,38.84,12.11,11.53,4.98,18,16.78,15.61,29.33ZM215.75,541.83l9.73-3.56-5.27-19.84-10.78-40.76c-.36-1.37-.09-2.61.69-3.5.54-.62,2.66-1.19,3.29-.44l26.1,30.88,34.44,40.84,8.14-15.83c.95-1.84,2.88-2.92,4.79-2.08,1.79.78,3.68,1.1,5.72,1.26l31.88,2.45-20.13-17.78-35.69-31.16-38.92-38.19c-1.97-1.93.8-4.3,2.13-5.39,13.77-11.28,25.61-24.39,35.43-39.23,6.81-10.29,10.91-21.8,10.66-34.12-.4-18.89-11.98-32.38-29.64-37.95-18.69-5.9-36.51-3.46-55.5.52-23,4.82-44.75,13.08-65.3,25.13l9.83,24.09,11.2-3.67c1.13.38,1.95,1.03,2.09,1.99.1.71-.8,1.98-1.5,2.22l-10,3.49,5.01,12.75,9.9-2.9c.75-.22,2.2.67,2.37,1.33s-.48,2.15-1.18,2.39l-9.45,3.2,4.28,12.33,8.06-2.28c.91-.26,2.33.33,2.68,1.25.27.71-.57,2.26-1.39,2.52l-7.87,2.48,4.43,13.97c5.15,16.24,9.52,32.24,13.44,48.9l9.78,47.58,4.99,29.25,31.54-12.12ZM466.86,444.68l-9.56-.95c-.74-.07-1.74-1.54-1.54-2.19.18-.57,1.34-1.74,2.02-1.67l9.31.95,1.15-8.87-9.34-.79c-.74-.06-2.02-1.02-2.19-1.68-.15-.58.97-2,1.58-1.98l10.43,1.01,1.04-8.51-10.08-1.52c-.71-.11-1.52-1.63-1.2-2.23.27-.5,1.43-1.26,2-1.17l9.76,1.53,3.15-22.56,2.42-19.4c.14-1.16,1.92-2.56,2.92-2.79,1.09-.25,2.56.69,3.57,1.39l32.31,4.52-2.81-36.56-16.69-2.09-23.61-2.35c-31.57-2.47-62.94-3.98-94.63-4.79l3.11,22.18,2.52,19.27,35.21-.35,3.64-.21c4.71.19,9.47.23,14.18-.43,1.52-.21,3.06-2.4,4.95-.65,1.31,1.21.94,2.47.62,4.44l-9.99,61.78-6.61,40.46-3.83,22.03,3.63,9.42c.85,2.19.51,4.52-2.11,5.34l-4.46,1.41-2.7,13.84,42.34.47,8.08-73.83-7.34-.88c-.69-.08-1.32-1.42-1.2-1.99s1.25-1.55,1.83-1.5l7.02.5,1.1-8.59ZM560.56,395.52c-1.43-17.38,21.51-28.13,39.92-22.69,4.27,1.26,8.11,3.63,10.77,7.07,4.9,6.34,4.17,14.99-.75,21.2.68,2.29,3.08,3.29,5.55,3.29,11.94,0,22.18-14.34,24.01-26.12l-4.47-.06c-1.04-.01-2.15-1.17-2-2.25s1.37-1.65,2.55-1.73l4.33-.3c.17-4.66-.4-8.61-1.94-12.46l-4.82,2.91c-.57.34-2.19-.3-2.38-.88-.16-.48.07-1.85.51-2.16l4.98-3.58c-1.47-2.76-3.27-5.22-5.51-7.8l-3.99,4.63c-.51.59-2.19.72-2.77.27-.65-.5-.8-2.21-.32-2.81l4.03-5.11-8.65-5.68-2.64,4.45c-.37.63-1.93.99-2.63.7-.65-.27-1.14-1.99-.76-2.63l2.42-4.11c-12.92-5.24-26.44-6.23-40.01-3.91-15.56,2.66-30.11,8.3-42.87,17.55l-12.3,10.64,1.54,18.24c.18,2.15-1.84,3.98-3.97,3.69l-8.29-1.14c-6.43,16.24-1.15,34.44,11.62,46.08,5.53,5.04,11.55,8.86,17.87,12.82l12.5,7.82c7.47,4.67,12.97,14.52,7.92,22.33-2.82,4.36-7.48,6.46-12.54,7.29l-11.2-.11c-7.47-.73-14.74-.9-22.17.45-.53,7.06.66,13.57,2.86,19.99l1.78,5.21c5.37.43,9.97,1.09,15.05,2.33,8.06,1.96,15.85,3.72,24.18,4.46,15.02,1.34,29.39-3.04,40.91-12.62,4.53-3.77,8.09-8.32,10.57-13.68,9.87-21.33,4.52-44.15-12.68-59.5-4.9-4.37-10.11-7.68-15.69-11.08-8.28-5.03-19.74-11.46-20.53-20.99ZM357.71,496.13c5.27-2.7,11.08-2.02,14.98,2.02,2.94,3.05,5.06,6.65,6.11,10.74l3.26,12.77,30.28-10.75,2.68-15.36c-9.39-26.39-19.77-52.01-31.69-77.33-12.85-27.3-26.87-53.74-43.44-78.95l-5.83,13.55c-.51,1.19-1.59,2.47-2.62,2.6-1.36.18-2.75-.48-3.54-1.6l-13.41-18.99c-6.58,17.64-12.61,34.34-17.13,52.09l-9.05,35.57-7.25,33.35-4.53,24.42,34.22,29.73c3.58-8.73,7.58-18.86,16.59-22.73,8.05-3.12,14.74,2.27,17.43,9.99l2.74,7.86c3.24-3.52,6.03-6.86,10.19-9ZM514.72,506.5l-3.91-15.86-.4-8.77c-7.01,1.58-13.87,4.32-19.42,9.31,3.58,6.79,8.57,12.48,13.71,18.07,3.22-1.38,6.65-2.21,10.03-2.75ZM495.42,520.01c1.05-3.83,3.14-6.58,6.31-8.8-4.9-5.71-9.71-11.26-13.38-17.73-6.33,6.28-9.87,14.69-10.71,23.15l17.78,3.38ZM498.07,534.49c-2.66-3.29-3.73-7.04-3.43-11.18l-17.06-2.84c-.12,9.34,4.2,17.44,10.44,23.57l10.05-9.54ZM509.12,554.75l3.89-10.89c-5.15-1.33-8.91-3.21-12.81-6.51l-9.26,9.12c5.53,4.33,11.35,6.69,18.18,8.29ZM532.53,558.75c1.73-3.81,2.97-6.84,3.73-10.58l-19.77-3.12-3.73,10.9,19.77,2.8ZM552.68,565.51c0-8.19-5.75-13.63-12.71-15.98l-3.64,10.08c6.24.46,11.32,2.75,16.34,5.9Z"/>
  <path d="M446.4,288.76c-11.13-2.18-19.44,3.6-23.98,13.78-.76,1.71-2.11,3.04-3.91,3.12-1.39.06-3.6-.95-4.42-2.39-2.55-4.48-4.85-8.74-8.13-12.6-4.72-5.56-11.96-6.58-17.9-2.05-5.4,4.12-8.68,10.3-10.69,16.91-.54,1.78-2.24,3.05-3.87,3.22-1.84.19-3.35-1.03-4.24-2.72-3.45-6.58-8.23-15.78-15.74-15.92-4.54-.08-8.24,2.98-10.78,6.54-7.44,10.42-4.57,21.6-9.37,22.23-14.7,1.91-29.05,4.2-43.55,7.45-1.73.39-3.39.21-4.61-.81s-1.98-2.78-1.75-4.51l2.67-19.65-75.06,11.05c-11.52,1.7-22.14,4.45-33.4,7.24-2.09.52-5.72-.85-5.74-3.41l-.21-28.69c-.31-42.43-10.39-97.46-19.64-139.54l-9.38-42.66c-.74-3.35.84-5.92,4.11-6.78l80.05-21.22c1.95-.52,3.6-.45,4.89.55,1.59,1.24,2.03,2.98,1.67,4.99-1.93,10.72-4.03,20.97-5.29,31.86-4.08,35.03-5.39,68.32-1.86,103.5l1.53,15.21c14.79-10.3,29.41-19.74,44.86-28.66l13.35-7.08c1.33-.7,3.33-.63,4.57.07,1.02.57,2.3,2.41,2.24,3.86l-1.58,38.4.51,25.83.81-5.08,3.79-21.06c5.83-32.42,12.77-64.43,22.15-96.05,5.92-19.94,13.43-38.85,22.97-57.19,3.03-5.83,6.16-11.04,10.19-16.12,1.15-1.45,3.28-2.26,5.06-2.12,1.45.11,3.24,1.48,4.23,3.06,5.44,8.7,10.44,17.18,15.23,26.36,8.79,16.88,16.75,33.83,24.31,51.38,10.23,23.73,19.79,47.25,31.38,70.64l-12.81-59.93-6.55-31.59c-1.07-3.91.94-6.67,4.45-7.94,8.48-3.07,16.56-6.3,25.32-8.73,11.9-3.31,23.58-5.79,36.05-5.92,18.75-.2,36.66,3.69,54.18,9.98,10.28,3.7,19.68,8.18,28.36,14.72,13.51,10.62,20.02,26.55,15.89,43.32l24.72-4c1.76-.29,3.5.71,3.98,2.09.62,1.8-.58,3.95-2.63,4.3l-28.22,4.88-1.84,3.92,26.59,2.09c1.63.13,2.94,1,3.26,2.52.24,1.13-.75,3.21-2.18,3.44-2.29.37-4.57.17-6.86-.21l-25.17-1.71c-4.14,5.25-8.94,9.05-14.63,12.45,14.27,4.99,24.91,15.18,30.81,28.79l27,4.87c1.8.32,3.09,1.66,2.98,3.29-.12,1.87-1.98,3.08-3.95,2.63l-10.04-2.31-13.83-2.21,1.44,5.48c7.95,2.33,15.07,5.02,22.43,8.42,1.18.54,1.67,2.59,1.3,3.68s-2.27,2.13-3.65,1.62l-19.28-7.1c.53,8.78-.86,16.15-3.57,23.87-5.54,15.77-16.91,27.93-31.68,35.69-25.25,13.26-55.03,16.09-83.31,13.65l-14.25-1.23c-2.6-.22-3.51-2.64-3.94-4.78l-5.81-28.96ZM372.85,296.01c3.08-6.41,7.39-11.83,13.11-15.47,7.35-4.38,15.81-4.12,22.3,1.36,4.02,3.27,6.9,7.28,9.7,12.19,5.37-9.39,15.02-14.45,25.67-13.89l9.57,2.08-19.53-39.73c-10.84-22.04-20.59-44.24-30.03-66.95-10.61-25.52-21.76-50.38-34.53-74.84-4.19-8.02-8.36-15.33-13.25-23.37-4.16,5.83-7.31,11.7-10.41,18.02-5.06,10.32-9.26,20.48-13.22,31.34-5.48,15.92-10.23,31.66-14.25,48.11-8.23,33.74-14.76,67.49-20.54,101.76l-5.93,40.93c12.76-2.65,24.93-4.72,37.64-6.13.8-6.02,2.5-11.45,5.42-16.53,2.81-5.4,7.14-9.61,12.74-11.96,11.51-4.18,19.36,3.07,25.54,13.09ZM225.6,245c-1.24.89-3.23-.12-3.92-.76-.86-.8-1.23-2.26-1.36-3.67l-2.44-26.28c-2.61-28.14-2.1-54.48.48-82.68l-9.01,1.61c-.53.1-1.73-.75-1.75-1.29s.77-1.72,1.32-1.82l9.62-1.7,1.08-11.02-9.3,1.83c-.82.16-1.62.24-2.15.05s-1.2-1.81-.75-2.15l1.6-1.24,10.98-1.88,4.37-28.15c-24.96,5.56-49,12-73.56,18.9l3.5,17.2,12.94,60.39,2.5-.9c.6-.21,1.77.04,2.05.56.23.43-.16,1.87-.62,2.07l-3.22,1.38c3.22,17.42,5.8,34.67,8.07,52.36,1.73,13.93,3.09,27.34,3.23,41.39l.32,31.71c11.66-2.6,22.6-5.32,34.26-7.03l71.32-10.49c-1.56-25.2-2.06-49.42-1.31-74l.36-11.94c-20.48,11.58-39.56,23.91-58.6,37.58ZM554.39,300.52c15.86-9.8,26.18-26.46,26.8-45.05.29-8.58-1.87-16.63-5.55-24.12-6.93-14.11-21.4-21.97-36.68-24.27-1.74-.26-3.14-1.69-2.97-3.32s1.52-2.38,3.14-2.89c9.16-2.88,17.36-8.26,23.31-15.63,11.01-13.63,10.14-32.19-2.05-44.77-5.11-5.27-11.34-9.18-18.21-12.36-15.26-7.07-31.25-11.72-47.99-13.78l-14.4-1.05c-21.11.58-39.91,6.18-59.48,13.95l7.42,36.15,6.61,29.59,13.02,60.91,16.86,33.87c.81,1.62,1.07,3.24-.05,4.76-.74,1-2.91,1.67-4.25,1.16l-4.68-1.75,4.64,23.28,15.96,1.17c14.87,1.09,29.24.27,43.84-2.68,12.4-2.51,23.73-6.39,34.72-13.18Z"/>
  <path class="st0" d="M215.75,541.83l-31.54,12.12-4.99-29.25-9.78-47.58c-3.92-16.67-8.28-32.67-13.44-48.9l-4.43-13.97,7.87-2.48c.81-.26,1.66-1.8,1.39-2.52-.35-.92-1.77-1.5-2.68-1.25l-8.06,2.28-4.28-12.33,9.45-3.2c.7-.24,1.34-1.73,1.18-2.39s-1.62-1.54-2.37-1.33l-9.9,2.9-5.01-12.75,10-3.49c.7-.24,1.6-1.51,1.5-2.22-.14-.96-.96-1.61-2.09-1.99l-11.2,3.67-9.83-24.09c20.55-12.04,42.29-20.3,65.3-25.13,19-3.98,36.81-6.42,55.5-.52,17.66,5.58,29.24,19.07,29.64,37.95.26,12.31-3.85,23.82-10.66,34.12-9.81,14.84-21.66,27.94-35.43,39.23-1.33,1.09-4.1,3.46-2.13,5.39l38.92,38.19,35.69,31.16,20.13,17.78-31.88-2.45c-2.04-.16-3.93-.48-5.72-1.26-1.92-.84-3.85.23-4.79,2.08l-8.14,15.83-34.44-40.84-26.1-30.88c-.63-.75-2.75-.18-3.29.44-.78.9-1.05,2.13-.69,3.5l10.78,40.76,5.27,19.84-9.73,3.56ZM231.26,388.8c3.38-8.68.57-18.76-8.37-20.61-17.71-3.68-39.85,14.65-38.35,35.35.56,7.76,6.65,13.29,14.59,12.77,13.58-.88,27.12-14.65,32.14-27.51ZM197.78,499.72c-1.45.59-2.26,2.53-1.81,3.59.7,1.63,2.31,2.38,3.57,1.84,1.54-.67,2.18-2.42,1.74-3.69-.49-1.39-1.99-2.34-3.5-1.73ZM192.03,519.9c1.05,1.58,2.73,1.64,3.85,1.03.77-.41,1.48-1.7,1.53-2.79.03-.84-.96-2.3-2.08-2.55-.97-.22-2.51.58-3.03,1.25-.45.58-.68,2.44-.26,3.06ZM206.08,527.62c2.58.63,3.65-1.1,3.85-2.65s-.56-3.52-2.56-3.68c-1.52-.12-2.92,1.49-3.18,2.86-.21,1.12.67,3.17,1.88,3.47Z"/>
  <path class="st0" d="M357.71,496.13c-4.16,2.13-6.95,5.48-10.19,9l-2.74-7.86c-2.69-7.72-9.38-13.11-17.43-9.99-9.01,3.88-13.01,14-16.59,22.73l-34.22-29.73,4.53-24.42,7.25-33.35,9.05-35.57c4.52-17.75,10.55-34.46,17.13-52.09l13.41,18.99c.79,1.11,2.18,1.78,3.54,1.6,1.03-.13,2.11-1.41,2.62-2.6l5.83-13.55c16.57,25.21,30.59,51.65,43.44,78.95,11.92,25.32,22.3,50.94,31.69,77.33l-2.68,15.36-30.28,10.75-3.26-12.77c-1.04-4.09-3.16-7.69-6.11-10.74-3.9-4.04-9.72-4.71-14.98-2.02ZM333.35,445.2c6.22-.73,12.35-.53,18.7-.29,1.22.05,2.56-.34,3.35-1.11.6-.59,1.2-2.39.7-3.31l-20.66-38.72c-.8-1.5-1.46-2.87-3.12-3.1-1.1-.15-3.17.9-3.65,2.27l-15.23,43.67c-.35,1,.02,2.81.6,3.39.5.51,2.08,1.15,2.77.95,5.6-1.56,10.79-3.08,16.54-3.76ZM368.03,474.46l1.79-2.35c.48-.63.4-2.23-.04-2.89-.35-.54-2.05-1.06-2.5-.56l-2.4,2.69c-.9,1.01-.92,2.55-.09,3.34s2.65.55,3.24-.23ZM287.38,478.97c2.02,1.32,3.63-.02,4.13-1.21.63-1.48-.22-3.37-2.12-3.88-.96-.25-2.47,1.01-2.87,1.98-.3.75.17,2.65.85,3.1ZM378.99,482.93c.14-.44-.32-1.51-.73-1.61-.33-.08-1.29.06-1.59.25-.55.34-1.5,1.62-1.14,2.08.44.56,1.36,1.3,1.95,1.36.5.05,1.26-1.29,1.51-2.09Z"/>
  <path class="st0" d="M560.56,395.52c.79,9.54,12.25,15.96,20.53,20.99,5.58,3.39,10.79,6.7,15.69,11.08,17.21,15.35,22.55,38.18,12.68,59.5-2.48,5.37-6.05,9.92-10.57,13.68-11.52,9.58-25.9,13.96-40.91,12.62-8.33-.74-16.12-2.5-24.18-4.46-5.08-1.24-9.67-1.9-15.05-2.33l-1.78-5.21c-2.2-6.42-3.39-12.93-2.86-19.99,7.43-1.36,14.7-1.18,22.17-.45l11.2.11c5.06-.82,9.72-2.92,12.54-7.29,5.06-7.81-.45-17.66-7.92-22.33l-12.5-7.82c-6.32-3.96-12.34-7.78-17.87-12.82-12.77-11.64-18.05-29.83-11.62-46.08l8.29,1.14c2.13.29,4.15-1.55,3.97-3.69l-1.54-18.24,12.3-10.64c12.76-9.25,27.31-14.89,42.87-17.55,13.56-2.32,27.09-1.33,40.01,3.91l-2.42,4.11c-.38.64.11,2.37.76,2.63.7.29,2.26-.08,2.63-.7l2.64-4.45,8.65,5.68-4.03,5.11c-.47.6-.32,2.31.32,2.81.58.45,2.26.32,2.77-.27l3.99-4.63c2.24,2.58,4.03,5.04,5.51,7.8l-4.98,3.58c-.44.32-.66,1.68-.51,2.16.19.58,1.81,1.22,2.38.88l4.82-2.91c1.54,3.85,2.11,7.8,1.94,12.46l-4.33.3c-1.18.08-2.4.62-2.55,1.73s.96,2.24,2,2.25l4.47.06c-1.83,11.78-12.07,26.13-24.01,26.12-2.47,0-4.87-1-5.55-3.29,4.91-6.21,5.64-14.86.75-21.2-2.66-3.44-6.5-5.81-10.77-7.07-18.41-5.45-41.35,5.3-39.92,22.69ZM596.17,476.56c-1.79.69-2.38,2.76-1.55,3.97.78,1.14,2.52,1.73,3.51,1.36,1.66-.62,2.36-2.41,1.87-3.84s-2.14-2.14-3.83-1.49ZM580.95,495.09c2.75.08,3.9-2.37,3.03-4.38-.62-1.43-2.62-2.44-4.45-1.34-1.15.69-1.91,2.1-1.68,3.39.17,1,1.73,2.29,3.11,2.34ZM547.18,498.77c.78-1.11.39-2.81-.51-3.53-.68-.54-2.34-.65-3.4-.03-.77.45-1.5,2.17-1.4,2.99.11.87,1.33,2.07,2.15,2.18,1,.14,2.38-.49,3.16-1.61ZM563.23,503.79c1.44-.18,2.68-1.86,2.7-3.07s-1.02-2.91-2.27-3.33c-2.19-.72-3.9,1.15-4.06,2.95s1.13,3.76,3.64,3.45Z"/>
  <path class="st0" d="M466.86,444.68l-1.1,8.59-7.02-.5c-.59-.04-1.71.94-1.83,1.5s.51,1.91,1.2,1.99l7.34.88-8.08,73.83-42.34-.47,2.7-13.84,4.46-1.41c2.62-.83,2.96-3.15,2.11-5.34l-3.63-9.42,3.83-22.03,6.61-40.46,9.99-61.78c.32-1.97.69-3.23-.62-4.44-1.9-1.75-3.43.44-4.95.65-4.72.66-9.47.63-14.18.43l-3.64.21-35.21.35-2.52-19.27-3.11-22.18c31.69.81,63.06,2.32,94.63,4.79l23.61,2.35,16.69,2.09,2.81,36.56-32.31-4.52c-1-.69-2.48-1.63-3.57-1.39-1,.23-2.77,1.63-2.92,2.79l-2.42,19.4-3.15,22.56-9.76-1.53c-.57-.09-1.73.67-2,1.17-.32.6.49,2.12,1.2,2.23l10.08,1.52-1.04,8.51-10.43-1.01c-.61-.02-1.74,1.4-1.58,1.98.18.67,1.45,1.62,2.19,1.68l9.34.79-1.15,8.87-9.31-.95c-.68-.07-1.85,1.1-2.02,1.67-.2.65.8,2.11,1.54,2.19l9.56.95ZM406.79,350.77c1.93.7,3.54-.65,3.86-2.23.23-1.12-.6-3.18-2.36-3.27-.95-.05-2.3,1.41-2.62,2.27s.19,2.89,1.13,3.23ZM392.37,351.23c2.48.85,3.73-.72,3.99-2.55.17-1.15-1.01-3.02-2.66-2.89-1.09.09-2.37,1.24-2.65,2.08-.32.97.39,3.04,1.32,3.36ZM415.99,358.68c-.81.33-1.16,1.89-.65,2.39.36.34,1.44.85,1.85.56.51-.36,1.08-1.45.79-1.95-.24-.44-1.52-1.19-1.99-.99ZM499.16,363.27c-.87.66-1.03,2.6-.54,3.3.63.9,2.25,1.12,3.29.39.7-.49,1.05-2.04.62-2.78-.63-1.08-2.04-1.92-3.37-.9ZM432.06,519.39c1.34-1.36,1.27-3.25.13-4.29-1.02-.93-2.79-.81-3.88.27s-1.19,2.9-.32,3.96c.99,1.21,2.77,1.38,4.07.06ZM447.04,517.59c.15-1.74-.99-2.99-2.24-3.13-1.07-.12-2.5.83-2.98,2.08-.38,1-.02,2.86.73,3.45.59.46,2.07.67,2.83.39.71-.26,1.56-1.69,1.65-2.79Z"/>
  <path class="st0" d="M514.72,506.5c-3.38.53-6.81,1.36-10.03,2.75-5.14-5.58-10.13-11.28-13.71-18.07,5.56-4.99,12.41-7.73,19.42-9.31l.4,8.77,3.91,15.86Z"/>
  <path class="st0" d="M495.42,520.01l-17.78-3.38c.84-8.46,4.38-16.87,10.71-23.15,3.67,6.47,8.48,12.02,13.38,17.73-3.17,2.21-5.27,4.97-6.31,8.8Z"/>
  <path class="st0" d="M498.07,534.49l-10.05,9.54c-6.24-6.12-10.55-14.22-10.44-23.57l17.06,2.84c-.3,4.15.77,7.89,3.43,11.18Z"/>
  <path class="st0" d="M532.53,558.75l-19.77-2.8,3.73-10.9,19.77,3.12c-.76,3.73-2,6.77-3.73,10.58Z"/>
  <path class="st0" d="M509.12,554.75c-6.83-1.59-12.65-3.96-18.18-8.29l9.26-9.12c3.9,3.3,7.66,5.18,12.81,6.51l-3.89,10.89Z"/>
  <path class="st0" d="M552.68,565.51c-5.02-3.16-10.1-5.44-16.34-5.9l3.64-10.08c6.96,2.36,12.71,7.8,12.71,15.98Z"/>
  <path class="st0" d="M554.39,300.52c-10.99,6.79-22.32,10.67-34.72,13.18-14.6,2.95-28.96,3.77-43.84,2.68l-15.96-1.17-4.64-23.28,4.68,1.75c1.34.5,3.51-.17,4.25-1.16,1.12-1.52.86-3.14.05-4.76l-16.86-33.87-13.02-60.91-6.61-29.59-7.42-36.15c19.57-7.76,38.37-13.36,59.48-13.95l14.4,1.05c16.75,2.06,32.73,6.71,47.99,13.78,6.87,3.18,13.11,7.09,18.21,12.36,12.19,12.58,13.07,31.14,2.05,44.77-5.95,7.37-14.16,12.75-23.31,15.63-1.62.51-2.97,1.22-3.14,2.89s1.23,3.06,2.97,3.32c15.28,2.3,29.74,10.16,36.68,24.27,3.68,7.49,5.84,15.53,5.55,24.12-.62,18.59-10.94,35.25-26.8,45.05ZM514.36,182.37c9.38-8.07,11.97-19.59,4.02-28.95-9.88-11.63-28.88-12.71-43.6-9.92-1.23.23-2.66.87-3.2,1.59-.67.89-1.01,2.69-.78,3.92l7.54,39.53c.37,1.92.2,3.5,1.85,4.43,1.4.78,2.98.3,4.63.18,10.74-.82,21.14-3.57,29.53-10.78ZM512.23,277.71c6.45-2.17,12.06-5.19,16.5-9.9,7.46-7.93,7.44-19.69-.43-27.37-2.73-2.67-6.26-4.86-9.95-6.25-12.38-4.67-22.74-3.47-35.43-1.3-1.34.23-3.41,2.74-3.12,4.25l7.61,38.54c.38,1.94.14,3.66,1.67,4.85s3.03.85,5.02.55c6.06-.94,12.09-1.33,18.12-3.37ZM544.49,294.02c1.2-.81,1.46-2.94.86-3.94-.73-1.22-2.6-1.5-3.92-.75-1.53.86-2.01,2.87-1.22,3.98.9,1.27,2.72,1.77,4.29.71ZM525.34,302.01c2.12.79,3.39-.69,3.7-2,.36-1.5-.44-3.3-2.34-3.49-1.23-.12-2.69,1.23-2.89,2.26-.22,1.13.44,2.82,1.53,3.22Z"/>
  <path class="st0" d="M372.85,296.01c-6.19-10.01-14.03-17.26-25.54-13.09-5.59,2.35-9.93,6.56-12.74,11.96-2.93,5.08-4.62,10.51-5.42,16.53-12.71,1.41-24.88,3.48-37.64,6.13l5.93-40.93c5.79-34.27,12.31-68.02,20.54-101.76,4.01-16.45,8.76-32.19,14.25-48.11,3.96-10.86,8.16-21.03,13.22-31.34,3.1-6.32,6.25-12.19,10.41-18.02,4.88,8.04,9.06,15.35,13.25,23.37,12.77,24.46,23.93,49.32,34.53,74.84,9.44,22.71,19.19,44.91,30.03,66.95l19.53,39.73-9.57-2.08c-10.65-.56-20.3,4.5-25.67,13.89-2.8-4.91-5.69-8.92-9.7-12.19-6.5-5.49-14.95-5.74-22.3-1.36-5.72,3.64-10.03,9.06-13.11,15.47ZM370.8,119.12l-13.36-24.08c-.47-.84-2.01-1.16-2.59-.52-.5.56-.61,1.5-.19,2.23l13.47,23.72c.36.63,1.37,1.34,1.9,1.16s1.11-1.88.76-2.51ZM367.57,132.68l-15.33-27.04c-.16-.93-1.46-1.45-2.15-1.08-.56.3-.95,1.58-.55,2.29l15.3,26.85c.28.49,1.58,1.01,1.99.69.34-.26.69-1.12.74-1.72ZM383.44,210.3c.2-.92-.52-2.1-1-3.18l-13.27-29.74-9.16-20.09c-.63-1.38-1.84-2.6-3.28-2.65-1.25-.05-3.09,1.04-3.46,2.52-5.28,21.16-9.55,42.14-13.51,63.59-.33,1.79.13,3.44,1.45,4.19,1.46.83,3.09.25,4.48-.69,6.67-4.47,14.21-7.02,21.92-9.25,9.21-2.67,15.01-.97,15.84-4.7ZM397.76,242.35c.73,1.01,2.57,1.33,3.62.84.84-.39,1.84-1.76,1.94-2.86.09-.95-1-2.51-2.17-2.88-1.1-.35-2.76.43-3.28,1.21-.67,1-.86,2.66-.12,3.69ZM394.95,257.8c.71-.42,1.51-2.23,1.43-3.03s-1.14-2.29-1.94-2.5c-2.18-.58-3.99,1.4-3.66,3.32.28,1.61,1.9,3.55,4.16,2.21ZM411.19,257.82c.84-1.06.93-3.03.3-4.02-.46-.72-1.95-1.4-2.95-1.14-.82.21-2.01,1.46-2.36,2.38-.61,1.61-.02,3.28,1.36,4.05.93.52,2.64.01,3.65-1.27ZM309.41,299.44c-.13-.73-1.49-1.83-2.25-1.7-1.27.78-2.91,2.4-3.64,3.79-.44.84.99,2.48,1.77,2.46,2.45-.06,4.48-2.63,4.12-4.55Z"/>
  <path class="st0" d="M225.6,245c19.04-13.67,38.12-26,58.6-37.58l-.36,11.94c-.75,24.58-.25,48.8,1.31,74l-71.32,10.49c-11.66,1.72-22.61,4.43-34.26,7.03l-.32-31.71c-.14-14.06-1.5-27.46-3.23-41.39-2.27-17.69-4.84-34.94-8.07-52.36l3.22-1.38c.46-.2.84-1.64.62-2.07-.27-.51-1.45-.77-2.05-.56l-2.5.9-12.94-60.39-3.5-17.2c24.57-6.9,48.61-13.34,73.56-18.9l-4.37,28.15-10.98,1.88-1.6,1.24c-.44.34.23,1.96.75,2.15s1.33.11,2.15-.05l9.3-1.83-1.08,11.02-9.62,1.7c-.55.1-1.34,1.28-1.32,1.82s1.22,1.39,1.75,1.29l9.01-1.61c-2.58,28.21-3.09,54.54-.48,82.68l2.44,26.28c.13,1.41.5,2.87,1.36,3.67.7.65,2.68,1.66,3.92.76ZM185.17,177.28c.21-.33-.15-1.64-.49-1.81-.26-.13-1.05-.15-1.32.03l-3.84,2.46c-.39.25-.8,1.31-.6,1.69.94,1.77,4.69.11,6.26-2.36ZM188.97,270.53l5.72-1.97c.51-.18,1.1-1.55.84-1.95s-1.39-.89-1.89-.76l-5.82,1.61c-.63.18-1.22,1.75-.9,2.27.27.45,1.54.97,2.05.8ZM190.05,278.82l14.23-3.86c.71-.19,1.47-1.68,1.1-2.36-.31-.57-1.51-.59-2.42-.35l-14.75,3.84c-.64.17-1.49,1.34-1.45,1.88s.72,1.53,1.26,1.58c.45.04,1.39-.56,2.04-.73ZM189.97,288.93c10.92-3.86,21.51-7.22,32.61-10.49.49-.22,1.41-1.44,1.02-1.78l-1.54-1.31-17.56,5.37-15.85,4.96c-.86.27-1.63,1.82-1.25,2.48.45.78,1.72,1.18,2.57.76ZM255.71,287.9c.91-.15,1.87-1.3,1.64-1.94-.18-.51-1.25-1.18-1.87-1.28l-26.72,4.54-12.69,1.77c8.32-4.37,16.73-7.4,25.58-9.78.58-.16,1.45-1.24,1.27-1.74s-1.08-1.12-1.8-1.42c-7.03,1.93-13.38,4.09-20.02,6.9l-16.34,7.39c-7.51,3.4-18.38,2.27-17.01,6.25.23.68,1.63,1.26,2.45.99,4.96-1.63,9.59-2.35,14.75-3.22l34.25-5.76,16.5-2.68Z"/>
  <path d="M206.08,527.62c-1.21-.3-2.09-2.34-1.88-3.47.26-1.36,1.66-2.97,3.18-2.86,2,.15,2.76,2.14,2.56,3.68s-1.27,3.27-3.85,2.65Z"/>
  <path d="M192.03,519.9c-.41-.62-.19-2.48.26-3.06.52-.67,2.06-1.47,3.03-1.25,1.12.26,2.12,1.71,2.08,2.55-.04,1.09-.76,2.38-1.53,2.79-1.12.61-2.8.55-3.85-1.03Z"/>
  <path d="M197.78,499.72c1.51-.61,3.01.34,3.5,1.73.45,1.27-.2,3.03-1.74,3.69-1.26.55-2.87-.21-3.57-1.84-.46-1.05.36-3,1.81-3.59Z"/>
  <path d="M368.03,474.46c-.59.78-2.42,1.01-3.24.23s-.81-2.33.09-3.34l2.4-2.69c.45-.5,2.14.02,2.5.56.44.66.52,2.26.04,2.89l-1.79,2.35Z"/>
  <path d="M287.38,478.97c-.69-.45-1.16-2.35-.85-3.1.39-.98,1.91-2.24,2.87-1.98,1.9.5,2.75,2.39,2.12,3.88-.51,1.19-2.11,2.53-4.13,1.21Z"/>
  <path d="M378.99,482.93c-.25.8-1.01,2.14-1.51,2.09-.59-.06-1.51-.81-1.95-1.36-.37-.46.59-1.74,1.14-2.08.3-.19,1.26-.33,1.59-.25.41.1.87,1.18.73,1.61Z"/>
  <path d="M563.23,503.79c-2.51.31-3.8-1.68-3.64-3.45s1.88-3.67,4.06-2.95c1.25.41,2.29,2.09,2.27,3.33s-1.26,2.89-2.7,3.07Z"/>
  <path d="M580.95,495.09c-1.38-.04-2.93-1.33-3.11-2.34-.22-1.3.53-2.7,1.68-3.39,1.84-1.09,3.84-.08,4.45,1.34.87,2.02-.27,4.47-3.03,4.38Z"/>
  <path d="M596.17,476.56c1.68-.65,3.36.11,3.83,1.49s-.22,3.23-1.87,3.84c-.99.37-2.73-.22-3.51-1.36-.83-1.21-.23-3.29,1.55-3.97Z"/>
  <path d="M547.18,498.77c-.78,1.12-2.16,1.75-3.16,1.61-.82-.11-2.04-1.31-2.15-2.18-.1-.82.63-2.54,1.4-2.99,1.06-.62,2.71-.51,3.4.03.9.72,1.29,2.42.51,3.53Z"/>
  <path d="M447.04,517.59c-.09,1.1-.95,2.53-1.65,2.79-.76.28-2.24.07-2.83-.39-.75-.59-1.12-2.45-.73-3.45.48-1.25,1.91-2.2,2.98-2.08,1.24.13,2.39,1.39,2.24,3.13Z"/>
  <path d="M432.06,519.39c-1.3,1.32-3.08,1.15-4.07-.06-.87-1.06-.83-2.84.32-3.96s2.87-1.2,3.88-.27c1.14,1.04,1.21,2.93-.13,4.29Z"/>
  <path d="M392.37,351.23c-.92-.32-1.64-2.39-1.32-3.36.28-.84,1.56-1.99,2.65-2.08,1.65-.13,2.83,1.74,2.66,2.89-.27,1.83-1.52,3.4-3.99,2.55Z"/>
  <path d="M406.79,350.77c-.94-.34-1.45-2.4-1.13-3.23s1.68-2.32,2.62-2.27c1.76.09,2.59,2.15,2.36,3.27-.32,1.58-1.93,2.93-3.86,2.23Z"/>
  <path d="M499.16,363.27c1.33-1.01,2.74-.18,3.37.9.43.74.07,2.29-.62,2.78-1.04.74-2.67.51-3.29-.39-.49-.7-.33-2.64.54-3.3Z"/>
  <path d="M415.99,358.68c.48-.19,1.75.56,1.99.99.28.51-.29,1.59-.79,1.95-.4.29-1.49-.21-1.85-.56-.51-.5-.17-2.06.65-2.39Z"/>
  <path d="M544.49,294.02c-1.57,1.06-3.38.56-4.29-.71-.79-1.11-.3-3.12,1.22-3.98,1.32-.75,3.19-.47,3.92.75.6,1,.34,3.13-.86,3.94Z"/>
  <path d="M525.34,302.01c-1.09-.41-1.75-2.09-1.53-3.22.2-1.03,1.66-2.39,2.89-2.26,1.91.19,2.71,1.99,2.34,3.49-.32,1.31-1.58,2.79-3.7,2Z"/>
  <path d="M367.57,132.68c-.04.6-.39,1.45-.74,1.72-.41.32-1.71-.2-1.99-.69l-15.3-26.85c-.41-.71-.02-1.99.55-2.29.69-.37,1.99.15,2.15,1.08l15.33,27.04Z"/>
  <path d="M370.8,119.12c.35.63-.23,2.34-.76,2.51s-1.54-.53-1.9-1.16l-13.47-23.72c-.42-.74-.31-1.68.19-2.23.58-.64,2.12-.33,2.59.52l13.36,24.08Z"/>
  <path d="M411.19,257.82c-1.01,1.28-2.72,1.78-3.65,1.27-1.38-.77-1.97-2.44-1.36-4.05.35-.92,1.54-2.16,2.36-2.38,1-.26,2.5.42,2.95,1.14.63.99.54,2.96-.3,4.02Z"/>
  <path d="M397.76,242.35c-.75-1.03-.56-2.7.12-3.69.52-.77,2.18-1.55,3.28-1.21,1.17.37,2.26,1.92,2.17,2.88-.11,1.1-1.11,2.47-1.94,2.86-1.05.49-2.89.17-3.62-.84Z"/>
  <path d="M394.95,257.8c-2.26,1.34-3.88-.6-4.16-2.21-.33-1.92,1.48-3.9,3.66-3.32.8.21,1.85,1.7,1.94,2.5s-.72,2.61-1.43,3.03Z"/>
  <path d="M309.41,299.44c.35,1.92-1.68,4.49-4.12,4.55-.77.02-2.21-1.62-1.77-2.46.73-1.39,2.37-3.01,3.64-3.79.76-.13,2.12.97,2.25,1.7Z"/>
  <path d="M255.71,287.9l-16.5,2.68-34.25,5.76c-5.16.87-9.79,1.59-14.75,3.22-.82.27-2.21-.31-2.45-.99-1.36-3.98,9.5-2.85,17.01-6.25l16.34-7.39c6.64-2.81,12.98-4.98,20.02-6.9.72.3,1.62.92,1.8,1.42s-.68,1.59-1.27,1.74c-8.85,2.38-17.27,5.42-25.58,9.78l12.69-1.77,26.72-4.54c.62.1,1.69.77,1.87,1.28.22.64-.73,1.79-1.64,1.94Z"/>
  <path d="M189.97,288.93c-.85.41-2.11.02-2.57-.76-.38-.66.39-2.21,1.25-2.48l15.85-4.96,17.56-5.37,1.54,1.31c.39.33-.53,1.55-1.02,1.78-11.09,3.27-21.69,6.62-32.61,10.49Z"/>
  <path d="M190.05,278.82c-.65.18-1.6.77-2.04.73-.54-.05-1.22-1.04-1.26-1.58s.82-1.71,1.45-1.88l14.75-3.84c.91-.24,2.11-.22,2.42.35.38.69-.38,2.17-1.1,2.36l-14.23,3.86Z"/>
  <path d="M188.97,270.53c-.52.18-1.78-.35-2.05-.8-.31-.52.27-2.1.9-2.27l5.82-1.61c.49-.14,1.63.36,1.89.76s-.33,1.77-.84,1.95l-5.72,1.97Z"/>
  <path d="M185.17,177.28c-1.57,2.47-5.32,4.13-6.26,2.36-.2-.38.21-1.43.6-1.69l3.84-2.46c.27-.17,1.06-.16,1.32-.03.34.18.7,1.49.49,1.81Z"/>
  <path d="M222.89,368.19c-17.71-3.68-39.85,14.65-38.35,35.35.56,7.76,6.65,13.29,14.59,12.77,13.58-.88,27.12-14.65,32.14-27.51,3.38-8.68.57-18.76-8.37-20.61ZM196.24,408.68c-7.77-2.47-5.15-16.86,5.55-26.24,4.92-4.31,10.83-7.19,17.4-7.05,3.42.07,5.93,2.45,6.05,5.91.41,11.74-18.4,30.75-29,27.38Z"/>
  <path d="M356.1,440.49l-20.66-38.72c-.8-1.5-1.46-2.87-3.12-3.1-1.1-.15-3.17.9-3.65,2.27l-15.23,43.67c-.35,1,.02,2.81.6,3.39.5.51,2.08,1.15,2.77.95,5.6-1.56,10.79-3.08,16.54-3.76,6.22-.73,12.35-.53,18.7-.29,1.22.05,2.56-.34,3.35-1.11.6-.59,1.2-2.39.7-3.31ZM322.7,440.41l7.71-21.93c.62-2.23,1.23-4.07,2.46-6.46l14.19,25.93c-8.76.06-16.2.87-24.37,2.46Z"/>
  <path d="M528.3,240.45c-2.73-2.67-6.26-4.86-9.95-6.25-12.38-4.67-22.74-3.47-35.43-1.3-1.34.23-3.41,2.74-3.12,4.25l7.61,38.54c.38,1.94.14,3.66,1.67,4.85,1.55,1.2,3.03.85,5.02.55,6.06-.94,12.09-1.33,18.12-3.37,6.45-2.17,12.06-5.19,16.5-9.9,7.46-7.93,7.44-19.69-.43-27.36ZM525.46,261.28c-7.24,9.49-19.8,11.66-31.2,12.58l-6.74-34.57c11.42-2.36,25.31-2.34,34.6,4.95,5.46,3.98,6.95,11.01,3.35,17.04Z"/>
  <path d="M518.38,153.43c-9.88-11.63-28.88-12.71-43.6-9.92-1.23.23-2.66.87-3.2,1.59-.67.9-1.01,2.69-.78,3.92l7.54,39.53c.37,1.92.2,3.5,1.85,4.43,1.4.78,2.98.3,4.63.18,10.74-.82,21.14-3.57,29.53-10.78,9.38-8.07,11.97-19.59,4.02-28.95ZM512.24,174.94c-6.91,7.51-16.82,10.81-27.18,11.25l-6.77-36.43c10.98-1.29,23.16-1.18,32.04,5.19,6.66,4.94,7.84,13.56,1.92,19.99Z"/>
  <path d="M382.43,207.12l-13.27-29.74-9.16-20.09c-.63-1.38-1.84-2.6-3.28-2.65-1.25-.05-3.09,1.04-3.46,2.52-5.28,21.16-9.55,42.14-13.51,63.59-.33,1.79.13,3.44,1.45,4.19,1.46.83,3.09.25,4.48-.69,6.67-4.47,14.21-7.02,21.92-9.25,9.21-2.67,15.01-.97,15.84-4.7.2-.92-.52-2.1-1-3.18ZM348.49,214.89l3.49-17.87,5.75-26.97,16.22,36.7c-8.99,1.81-17.22,4.24-25.46,8.14Z"/>
</svg>